<?xml version="1.0" encoding="UTF-8"?>
<svg version="1.1" xmlns="http://www.w3.org/2000/svg" width="1024" height="171">
<path d="M0 0 C337.92 0 675.84 0 1024 0 C1024 56.43 1024 112.86 1024 171 C686.08 171 348.16 171 0 171 C0 114.57 0 58.14 0 0 Z " fill="#FEFEFE" transform="translate(0,0)"/>
<path d="M0 0 C1.95934686 3.53746333 3.01766413 7.20164235 4.1875 11.0625 C9.20399292 26.63814474 19.47591695 39.3383025 34 47 C39.55190325 49.61625796 44.92677051 51.96202987 51 53 C48.40546173 55.59453827 46.05442164 56.06687235 42.5625 57.1875 C26.59528385 62.64742994 15.3360511 72.99982039 7.87695312 88.06054688 C5.40809847 93.52061965 3.67332883 99.25597701 2 105 C1.34 105 0.68 105 0 105 C-0.20753906 104.28457031 -0.41507813 103.56914062 -0.62890625 102.83203125 C-6.57076908 83.61420711 -16.5774306 70.68140504 -34 61 C-39.4818466 58.37079912 -45.12644402 56.532232 -51 55 C-48.06309397 53.04206264 -45.91290615 52.29581973 -42.5625 51.3125 C-27.84418308 46.53127705 -15.34418386 37.23851478 -8.0390625 23.4375 C-4.26774397 15.87041196 -1.62822091 8.32718692 0 0 Z " fill="#3F9FF6" transform="translate(557,39)"/>
<path d="M0 0 C22 0 22 0 30 3 C34.26757603 7.35837552 36.12796436 10.63512678 36.375 16.6875 C36.29359967 22.26342266 34.80970895 25.92755251 31 30 C24.53460919 35.6373112 16.00191146 34.28578255 8 34 C8 39.94 8 45.88 8 52 C5.36 52 2.72 52 0 52 C0 34.84 0 17.68 0 0 Z " fill="#242324" transform="translate(140,67)"/>
<path d="M0 0 C2.94409176 1.88838209 5.14392036 4.26488188 6.921875 7.2421875 C7.26245117 10.45019531 7.26245117 10.45019531 7.21484375 14.1953125 C7.21059891 14.85553406 7.20635406 15.51575562 7.20198059 16.19598389 C7.18524935 18.29514141 7.14761051 20.39332246 7.109375 22.4921875 C7.09432084 23.91925692 7.08063371 25.34634146 7.06835938 26.7734375 C7.03536501 30.26333567 6.98362243 33.7526662 6.921875 37.2421875 C4.281875 37.2421875 1.641875 37.2421875 -1.078125 37.2421875 C-1.408125 35.9221875 -1.738125 34.6021875 -2.078125 33.2421875 C-2.67625 33.9021875 -3.274375 34.5621875 -3.890625 35.2421875 C-8.53106465 38.15383591 -12.73229653 37.91745004 -18.078125 37.2421875 C-21.81842685 35.63920099 -22.80970965 34.64481052 -25.078125 31.2421875 C-25.4140625 29.15625 -25.4140625 29.15625 -25.453125 26.8671875 C-25.48148438 26.11695312 -25.50984375 25.36671875 -25.5390625 24.59375 C-24.87729793 21.21762908 -23.52233964 19.63808159 -21.078125 17.2421875 C-14.75386422 14.81995428 -7.83568816 13.7707296 -1.078125 14.2421875 C-2.60368466 9.43095903 -2.60368466 9.43095903 -6.078125 6.2421875 C-8.9938941 5.82516628 -8.9938941 5.82516628 -12.078125 6.2421875 C-13.00625 7.2321875 -13.00625 7.2321875 -13.953125 8.2421875 C-16.43186156 10.57511603 -17.05620209 10.51514836 -20.328125 10.4921875 C-21.565625 10.4096875 -22.803125 10.3271875 -24.078125 10.2421875 C-23.59758814 5.91735575 -22.42030519 4.01142252 -19.078125 1.2421875 C-13.7996462 -2.06724078 -5.77609743 -2.10632124 0 0 Z " fill="#262526" transform="translate(262.078125,81.7578125)"/>
<path d="M0 0 C3.43678046 1.85673521 5.33365237 3.61879448 6.65625 7.24609375 C6.88330078 10.45410156 6.88330078 10.45410156 6.8515625 14.19921875 C6.8487326 14.85944031 6.84590271 15.51966187 6.84298706 16.19989014 C6.83183415 18.29881272 6.80673946 20.39730117 6.78125 22.49609375 C6.77121384 23.9231709 6.7620891 25.35025477 6.75390625 26.77734375 C6.73191111 30.26706703 6.69741536 33.75653798 6.65625 37.24609375 C4.01625 37.24609375 1.37625 37.24609375 -1.34375 37.24609375 C-1.67375 35.92609375 -2.00375 34.60609375 -2.34375 33.24609375 C-2.941875 33.90609375 -3.54 34.56609375 -4.15625 35.24609375 C-8.79317925 38.15553956 -13.00430828 38.17639179 -18.34375 37.24609375 C-21.51368851 35.57802902 -23.71857717 33.49643942 -25.34375 30.24609375 C-25.91913625 23.22638144 -25.91913625 23.22638144 -23.65625 19.37109375 C-19.16883851 15.24752644 -14.42521667 14.89182141 -8.53125 14.62109375 C-7.83837891 14.58242187 -7.14550781 14.54375 -6.43164062 14.50390625 C-4.73607985 14.41035807 -3.03995288 14.32717011 -1.34375 14.24609375 C-2.61349972 9.83087266 -2.61349972 9.83087266 -5.34375 6.24609375 C-9.037257 6.04462973 -11.82315432 6.07256186 -15.34375 7.24609375 C-15.34375 8.23609375 -15.34375 9.22609375 -15.34375 10.24609375 C-18.31375 10.24609375 -21.28375 10.24609375 -24.34375 10.24609375 C-23.10267597 5.28179764 -21.58268588 3.10737547 -17.34375 0.24609375 C-12.53596626 -2.15779812 -5.02294833 -1.61571505 0 0 Z " fill="#272627" transform="translate(367.34375,81.75390625)"/>
<path d="M0 0 C4.94586526 2.29629459 7.30760518 5.31323865 10 10 C11 13 11 13 11 22 C2.42 22 -6.16 22 -15 22 C-12.81940167 28.84825895 -12.81940167 28.84825895 -9 31 C-6.77429623 31.13818982 -6.77429623 31.13818982 -4.4375 30.8125 C-3.65246094 30.73644531 -2.86742187 30.66039063 -2.05859375 30.58203125 C0.38047967 30.13317428 0.38047967 30.13317428 2 27 C3.9453125 26.70703125 3.9453125 26.70703125 6.125 26.8125 C7.40375 26.874375 8.6825 26.93625 10 27 C9.77581061 30.92331434 9.04047908 31.96128088 6.125 34.75 C0.47007784 38.82154395 -5.23625137 38.64501974 -12 38 C-16.46279226 35.84829659 -19.2358803 33.09499214 -22 29 C-23.96612826 23.03563775 -24.24142926 15.40857948 -22.09375 9.51171875 C-16.84695949 0.5820849 -9.97091782 -1.34223894 0 0 Z " fill="#282728" transform="translate(325,81)"/>
<path d="M0 0 C1.98 0 3.96 0 6 0 C6 35.97 6 71.94 6 109 C4.02 109 2.04 109 0 109 C0 73.03 0 37.06 0 0 Z " fill="#222222" transform="translate(483,39)"/>
<path d="M0 0 C3.56975433 -0.77572126 6.4700002 -1.04516685 10 0 C13.05079772 3.66739129 15.05083398 7.66278289 17 12 C19.33152996 9.1639583 21.48194843 6.40787965 23.25 3.1875 C23.8275 2.135625 24.405 1.08375 25 0 C27.97 0 30.94 0 34 0 C32.1361161 5.36482986 28.90041654 9.5062582 25.58203125 14.0625 C23.82374085 16.79496417 23.82374085 16.79496417 23.9453125 19.390625 C25.48447389 23.19862428 27.71352099 26.39616202 30.0625 29.75 C35 36.90364939 35 36.90364939 35 38 C31.43173063 38.77539858 28.52807419 39.04763775 25 38 C22.60735851 35.02982436 21.02756976 32.05726028 19.375 28.625 C18.92125 27.75875 18.4675 26.8925 18 26 C17.34 26 16.68 26 16 26 C14.74163402 27.76403729 13.5661735 29.58779499 12.4375 31.4375 C9.05298013 36.94701987 9.05298013 36.94701987 8 38 C6.48071962 38.07179964 4.95832518 38.08392007 3.4375 38.0625 C2.61121094 38.05347656 1.78492188 38.04445312 0.93359375 38.03515625 C0.29550781 38.02355469 -0.34257812 38.01195312 -1 38 C-0.55269531 37.31035156 -0.10539063 36.62070313 0.35546875 35.91015625 C4.12731658 30.04730536 7.68878773 24.13377299 11 18 C10.66677734 17.49025635 10.33355469 16.9805127 9.99023438 16.45532227 C8.49113747 14.15924045 6.99552712 11.86090838 5.5 9.5625 C4.97535156 8.76005859 4.45070312 7.95761719 3.91015625 7.13085938 C3.41386719 6.36708984 2.91757813 5.60332031 2.40625 4.81640625 C1.94541016 4.10943604 1.48457031 3.40246582 1.00976562 2.67407227 C0 1 0 1 0 0 Z " fill="#262526" transform="translate(198,81)"/>
<path d="M0 0 C5.16957757 2.21553325 7.05612672 5.28352505 9.3359375 10.1953125 C10 12 10 12 10 14 C4.6875 14.53125 4.6875 14.53125 2 14 C0.66666667 12 -0.66666667 10 -2 8 C-4.97627432 7.21484788 -6.85363493 7.55051928 -10 8 C-12.17476401 9.54338091 -12.81832637 10.63665273 -14 13 C-14.14851844 14.93359586 -14.22130833 16.87342097 -14.25 18.8125 C-14.27578125 19.85019531 -14.3015625 20.88789062 -14.328125 21.95703125 C-13.92725907 25.67458551 -12.66260007 28.33739993 -10 31 C-6.88489209 31.14272407 -3.98823227 30.90454598 -1 30 C1.16247221 27.09748698 1.16247221 27.09748698 2 24 C4.64 24 7.28 24 10 24 C9.46543012 28.54384397 7.85857428 31.44609684 5 35 C-0.33003191 38.99752393 -6.61585058 38.77171037 -13 38 C-18.98986254 35.32595422 -21.43622702 31.03974687 -23.75 25.0625 C-24.55657129 18.40828685 -24.2107391 12.95006016 -21 7 C-14.87022908 -0.22998621 -9.17733327 -0.95956031 0 0 Z " fill="#262526" transform="translate(405,81)"/>
<path d="M0 0 C2.64 0 5.28 0 8 0 C8 3.3 8 6.6 8 10 C10.64 10 13.28 10 16 10 C16 12.31 16 14.62 16 17 C13.36 17 10.72 17 8 17 C8.13847638 20.62532066 8.28702643 24.25015904 8.4375 27.875 C8.47681641 28.90753906 8.51613281 29.94007812 8.55664062 31.00390625 C8.61948242 32.48310547 8.61948242 32.48310547 8.68359375 33.9921875 C8.72025146 34.90339355 8.75690918 35.81459961 8.79467773 36.75341797 C8.86577065 39.03483481 8.86577065 39.03483481 10 41 C12.52733235 41.65555119 12.52733235 41.65555119 15 42 C15 43.98 15 45.96 15 48 C13.43997572 48.1363128 11.87642824 48.23259126 10.3125 48.3125 C9.44238281 48.37050781 8.57226562 48.42851563 7.67578125 48.48828125 C5 48 5 48 2.1875 46.34375 C-1.33216457 40.96369131 -0.52331022 35.45667155 -0.3125 29.1875 C-0.27866211 27.28967773 -0.27866211 27.28967773 -0.24414062 25.35351562 C-0.18529078 22.23447381 -0.1031137 19.11784098 0 16 C-1.98 16 -3.96 16 -6 16 C-6 14.35 -6 12.7 -6 11 C-4.02 11 -2.04 11 0 11 C0 7.37 0 3.74 0 0 Z " fill="#242324" transform="translate(425,71)"/>
<path d="M0 0 C0.99 0.66 1.98 1.32 3 2 C3 1.34 3 0.68 3 0 C3.99 0 4.98 0 6 0 C6.0580772 4.08327357 6.09362249 8.16644083 6.125 12.25 C6.14175781 13.40886719 6.15851562 14.56773438 6.17578125 15.76171875 C6.18222656 16.87675781 6.18867187 17.99179688 6.1953125 19.140625 C6.20578613 20.16704102 6.21625977 21.19345703 6.22705078 22.25097656 C5.99579087 25.05096211 5.50098215 26.64964563 4 29 C0.56297069 31.54594764 -2.85046112 31.36399464 -7 31 C-9.875 29.75 -9.875 29.75 -12 28 C-12.8125 25.8125 -12.8125 25.8125 -13 24 C-11.35 24.33 -9.7 24.66 -8 25 C-8 25.66 -8 26.32 -8 27 C-4.04 26.505 -4.04 26.505 0 26 C0 24.68 0 23.36 0 22 C-1.2375 22.0825 -2.475 22.165 -3.75 22.25 C-7.00872649 22.26153532 -7.74749429 22.19423516 -10.4375 20.125 C-13.88004622 15.44313714 -13.7004304 10.65231041 -13 5 C-9.48049866 -0.60920526 -6.12201874 -0.69119566 0 0 Z " fill="#0D0D0D" transform="translate(874,85)"/>
<path d="M0 0 C2.64 0 5.28 0 8 0 C8.33 1.32 8.66 2.64 9 4 C9.680625 3.34 10.36125 2.68 11.0625 2 C14.64457375 -0.43885872 16.75519536 -0.33292585 21 0 C21 2.31 21 4.62 21 7 C18.02148438 7.63476562 18.02148438 7.63476562 15.04296875 8.26953125 C12.55984159 9.15737978 11.6097094 9.90446732 10 12 C9.4939264 14.8028729 9.4939264 14.8028729 9.48828125 17.98046875 C9.45283203 19.14384766 9.41738281 20.30722656 9.38085938 21.50585938 C9.34702148 23.32827148 9.34702148 23.32827148 9.3125 25.1875 C9.27833984 26.41404297 9.24417969 27.64058594 9.20898438 28.90429688 C9.1264059 31.93610678 9.05728631 34.96762379 9 38 C6.03 38 3.06 38 0 38 C0 25.46 0 12.92 0 0 Z " fill="#272727" transform="translate(278,81)"/>
<path d="M0 0 C1.32 0 2.64 0 4 0 C4.33 2.97 4.66 5.94 5 9 C5.33 8.67 5.66 8.34 6 8 C10.6796291 7.53203709 12.94396073 7.36197627 17 9.8125 C19.91907006 14.46476792 19.8922191 18.64668537 19 24 C17.19881522 27.00197464 16.09667268 28.45166366 13 30 C9.51044604 30.30343947 7.62494296 30.39470082 4.625 28.5 C4.08875 28.005 3.5525 27.51 3 27 C3 27.66 3 28.32 3 29 C2.01 29 1.02 29 0 29 C0 19.43 0 9.86 0 0 Z " fill="#232222" transform="translate(806,78)"/>
<path d="M0 0 C0.99 0 1.98 0 3 0 C3.33 0.66 3.66 1.32 4 2 C4.99 1.34 5.98 0.68 7 0 C10.11931927 0 12.12894852 0.02950372 15 1 C18.28806575 4.28806575 19.24828259 7.02885078 19.4375 11.5625 C19.25520182 15.42982569 18.50180366 17.94223997 16 21 C12.51195905 23.32536063 11.09859246 23.33457898 7 23 C5.68 22.34 4.36 21.68 3 21 C3 23.97 3 26.94 3 30 C2.01 30 1.02 30 0 30 C0 20.1 0 10.2 0 0 Z " fill="#151515" transform="translate(635,85)"/>
<path d="M0 0 C1.32 0 2.64 0 4 0 C4 9.57 4 19.14 4 29 C2.68 28.67 1.36 28.34 0 28 C-0.99 28.66 -1.98 29.32 -3 30 C-6.93827328 29.85679006 -9.25102816 29.59129356 -12.375 27.125 C-15.42015483 23.14287445 -15.54758405 18.8432865 -15 14 C-12.86111111 9.43055556 -12.86111111 9.43055556 -10 8 C-8.125 7.8671875 -8.125 7.8671875 -6 7.875 C-4.948125 7.87113281 -4.948125 7.87113281 -3.875 7.8671875 C-2 8 -2 8 0 9 C0 6.03 0 3.06 0 0 Z " fill="#131212" transform="translate(784,78)"/>
<path d="M0 0 C2.3828125 0.5 2.3828125 0.5 5.5078125 2.3125 C8.2750534 7.01680952 8.214222 11.17578147 7.3828125 16.5 C5.9453125 19.625 5.9453125 19.625 3.3828125 21.5 C-0.93437112 22.77260263 -4.35688017 23.00948594 -8.5546875 21.3125 C-11.23118444 18.96042693 -12.38057765 16.86984647 -12.98828125 13.3515625 C-13.10591618 9.40733233 -12.98980982 6.28113603 -10.7421875 2.9375 C-6.93706154 -0.03049825 -4.72623857 -0.3385962 0 0 Z " fill="#1C1C1C" transform="translate(669.6171875,85.5)"/>
<path d="M0 0 C1.4540625 0.0309375 1.4540625 0.0309375 2.9375 0.0625 C1.61628842 6.40685714 -0.04639726 12.50179149 -2.06640625 18.65625 C-2.34975327 19.5289856 -2.63310028 20.40172119 -2.92503357 21.30090332 C-3.51888521 23.12671597 -4.11478063 24.95186506 -4.71264648 26.77636719 C-5.63102835 29.58090931 -6.54153301 32.38792396 -7.45117188 35.1953125 C-8.03078852 36.97410877 -8.6108504 38.75276004 -9.19140625 40.53125 C-9.46432999 41.3728064 -9.73725372 42.21436279 -10.01844788 43.0814209 C-11.94709928 48.94709928 -11.94709928 48.94709928 -13.0625 50.0625 C-15.06208364 50.10330783 -17.06295254 50.10504356 -19.0625 50.0625 C-17.74128842 43.71814286 -16.07860274 37.62320851 -14.05859375 31.46875 C-13.77524673 30.5960144 -13.49189972 29.72327881 -13.19996643 28.82409668 C-12.60611479 26.99828403 -12.01021937 25.17313494 -11.41235352 23.34863281 C-10.49397165 20.54409069 -9.58346699 17.73707604 -8.67382812 14.9296875 C-8.09421148 13.15089123 -7.5141496 11.37223996 -6.93359375 9.59375 C-6.66067001 8.7521936 -6.38774628 7.91063721 -6.10655212 7.0435791 C-3.81621146 0.07788187 -3.81621146 0.07788187 0 0 Z " fill="#141D3B" transform="translate(74.0625,68.9375)"/>
<path d="M0 0 C0.99 0 1.98 0 3 0 C3 34.98 3 69.96 3 106 C2.01 106 1.02 106 0 106 C0 71.02 0 36.04 0 0 Z " fill="#2A2A2B" transform="translate(484,40)"/>
<path d="M0 0 C0.99 0 1.98 0 3 0 C3.33 0.66 3.66 1.32 4 2 C4.99 1.34 5.98 0.68 7 0 C9.3431213 0.25561323 11.67843403 0.59270772 14 1 C17.93991322 1.1533503 17.93991322 1.1533503 21.4375 0.1875 C25 0 25 0 27.703125 1.9375 C30.77986437 6.03981916 30.58321432 8.84385109 30.3125 13.8125 C30.28994141 14.60076172 30.26738281 15.38902344 30.24414062 16.20117188 C30.18554161 18.13493929 30.09586827 20.06772167 30 22 C28.68 22 27.36 22 26 22 C25.67 16.06 25.34 10.12 25 4 C22.69 4.66 20.38 5.32 18 6 C17.67 11.28 17.34 16.56 17 22 C15.68 22 14.36 22 13 22 C12.93941406 20.85660156 12.87882813 19.71320313 12.81640625 18.53515625 C12.73201572 17.04425695 12.64736698 15.55337225 12.5625 14.0625 C12.52318359 13.30775391 12.48386719 12.55300781 12.44335938 11.77539062 C12.55961976 8.08055813 12.55961976 8.08055813 11 5 C8.5 4.83333333 8.5 4.83333333 6 5 C3.88074396 7.11925604 4.58168983 11.6196093 4.4375 14.5625 C4.39431641 15.36880859 4.35113281 16.17511719 4.30664062 17.00585938 C4.20024738 19.00368805 4.09959112 21.0018207 4 23 C2.68 23 1.36 23 0 23 C0 15.41 0 7.82 0 0 Z " fill="#222222" transform="translate(910,85)"/>
<path d="M0 0 C12.46024735 -0.41077739 12.46024735 -0.41077739 17 3 C19.32536063 6.48804095 19.33457898 7.90140754 19 12 C18.15995105 14.52014685 17.55612604 15.63012372 15.34375 17.1015625 C12.22307938 18.29781957 9.58125177 18.19162504 6.25 18.125 C3.15625 18.063125 3.15625 18.063125 0 18 C0 12.06 0 6.12 0 0 Z " fill="#FBFBFB" transform="translate(148,75)"/>
<path d="M0 0 C3.9672797 0.26448531 5.67929288 0.7934343 8.75 3.25 C11.31227841 6.78838447 10.75 8.43796389 10.75 13.25 C5.47 13.25 0.19 13.25 -5.25 13.25 C-4.92 14.9 -4.59 16.55 -4.25 18.25 C-0.26349595 18.98035576 -0.26349595 18.98035576 3.75 19.25 C5.52190909 17.89555699 5.52190909 17.89555699 6.75 16.25 C8.07 16.25 9.39 16.25 10.75 16.25 C9.30813953 20.81589147 9.30813953 20.81589147 7.0625 22.5625 C3.75453681 23.54594851 1.18984022 23.60584554 -2.25 23.25 C-7.78846154 20.17307692 -7.78846154 20.17307692 -9.25 17.25 C-9.87165748 11.73501005 -10.31404786 7.61416392 -6.8125 3.125 C-5.966875 2.50625 -5.12125 1.8875 -4.25 1.25 C-3.25 0.25 -3.25 0.25 0 0 Z " fill="#232223" transform="translate(894.25,84.75)"/>
<path d="M0 0 C0 1.98 0 3.96 0 6 C-1.46373047 6.72316406 -1.46373047 6.72316406 -2.95703125 7.4609375 C-4.24224049 8.09885158 -5.52739382 8.73687831 -6.8125 9.375 C-7.45509766 9.69210938 -8.09769531 10.00921875 -8.75976562 10.3359375 C-11.63194461 11.76458611 -14.3267821 13.21785473 -17 15 C-15.85660156 15.49371094 -14.71320312 15.98742187 -13.53515625 16.49609375 C-12.044217 17.14310512 -10.5533345 17.7902473 -9.0625 18.4375 C-8.30775391 18.76298828 -7.55300781 19.08847656 -6.77539062 19.42382812 C-1.11328125 21.88671875 -1.11328125 21.88671875 0 23 C0.04092937 25.33297433 0.04241723 27.66705225 0 30 C-3.25061844 28.54304237 -6.50038475 27.08419362 -9.75 25.625 C-10.67039062 25.2125 -11.59078125 24.8 -12.5390625 24.375 C-13.87324219 23.77558594 -13.87324219 23.77558594 -15.234375 23.1640625 C-16.05131836 22.79748535 -16.86826172 22.4309082 -17.70996094 22.05322266 C-19.82738967 21.07938603 -21.91541616 20.04229192 -24 19 C-24 16.03 -24 13.06 -24 10 C-20.37777789 8.32724698 -16.7517834 6.66283749 -13.125 5 C-11.57619141 4.28457031 -11.57619141 4.28457031 -9.99609375 3.5546875 C-9.00996094 3.10351562 -8.02382813 2.65234375 -7.0078125 2.1875 C-6.09660645 1.76855469 -5.18540039 1.34960938 -4.24658203 0.91796875 C-2 0 -2 0 0 0 Z " fill="#B5238D" transform="translate(51,80)"/>
<path d="M0 0 C2.64 0 5.28 0 8 0 C8 12.21 8 24.42 8 37 C5.36 37 2.72 37 0 37 C0 24.79 0 12.58 0 0 Z " fill="#1F1E1F" transform="translate(183,82)"/>
<path d="M0 0 C8.17824952 2.39707314 15.46651278 6.08858772 23 10 C23 12.97 23 15.94 23 19 C21.90300781 19.54269531 20.80601563 20.08539063 19.67578125 20.64453125 C18.22130061 21.3670797 16.7668765 22.08974196 15.3125 22.8125 C14.2306543 23.34713867 14.2306543 23.34713867 13.12695312 23.89257812 C10.04436362 25.426835 7.04926524 26.97001535 4.10546875 28.76171875 C2 30 2 30 0 30 C0 27.69 0 25.38 0 23 C1.05960937 22.50628906 2.11921875 22.01257813 3.2109375 21.50390625 C4.59896507 20.85678529 5.98698554 20.20964908 7.375 19.5625 C8.42300781 19.07426758 8.42300781 19.07426758 9.4921875 18.57617188 C13.26246981 16.82218564 13.26246981 16.82218564 17 15 C11.39 12.03 5.78 9.06 0 6 C0 4.02 0 2.04 0 0 Z " fill="#18B5FA" transform="translate(82,80)"/>
<path d="M0 0 C3.0625 2.0625 3.0625 2.0625 5 5 C5 7.31 5 9.62 5 12 C0.05 12 -4.9 12 -10 12 C-9.34 13.65 -8.68 15.3 -8 17 C-5.36 17 -2.72 17 0 17 C0.33 16.34 0.66 15.68 1 15 C2.32 15 3.64 15 5 15 C3.52980132 19.65562914 3.52980132 19.65562914 1.203125 21.16796875 C-2.61401862 22.60954959 -6.12289728 22.06709249 -10 21 C-12.5625 19.0625 -12.5625 19.0625 -14 16 C-14.62590469 10.97650521 -14.80446823 6.37609975 -12 2 C-7.97417418 -0.68388388 -4.72915204 -0.79509386 0 0 Z " fill="#333233" transform="translate(761,86)"/>
<path d="M0 0 C2.50160818 1.87620613 3.61945652 3.23891303 5 6 C5 7.98 5 9.96 5 12 C0.05 12.33 -4.9 12.66 -10 13 C-9.34 14.32 -8.68 15.64 -8 17 C-5.08995097 18.08223366 -5.08995097 18.08223366 -2 18 C-0.35405861 16.60411246 -0.35405861 16.60411246 1 15 C2.32 15 3.64 15 5 15 C3.52980132 19.65562914 3.52980132 19.65562914 1.203125 21.16796875 C-2.61728599 22.61078354 -6.11893202 22.06106262 -10 21 C-13.07346096 18.75112613 -13.82342045 17.13078829 -14.40625 13.3984375 C-14.65762513 8.73542884 -14.51848174 5.8529861 -12.0625 1.8125 C-7.96708776 -0.61131541 -4.6524192 -0.96526828 0 0 Z " fill="#323132" transform="translate(725,86)"/>
<path d="M0 0 C1.32 0 2.64 0 4 0 C4.508783 1.55966218 5.00663469 3.12289241 5.5 4.6875 C5.7784375 5.55761719 6.056875 6.42773438 6.34375 7.32421875 C6.99850805 9.99391677 7.11831495 12.26396684 7 15 C7.66 15 8.32 15 9 15 C9.12375 13.824375 9.2475 12.64875 9.375 11.4375 C9.86435935 7.45879574 10.8055205 3.82233441 12 0 C13.65 0 15.3 0 17 0 C18.32 4.29 19.64 8.58 21 13 C22.32 8.71 23.64 4.42 25 0 C26.32 0 27.64 0 29 0 C27.29977612 7.12647031 25.42080258 14.0834212 23 21 C21.35 21 19.7 21 18 21 C17.79503906 20.14535156 17.59007812 19.29070312 17.37890625 18.41015625 C17.10949219 17.30542969 16.84007812 16.20070313 16.5625 15.0625 C16.29566406 13.96035156 16.02882813 12.85820313 15.75390625 11.72265625 C15.27004275 9.10578746 15.27004275 9.10578746 14 8 C12.68 12.29 11.36 16.58 10 21 C8.68 21 7.36 21 6 21 C4.99263372 18.06497405 3.99539496 15.12660539 3 12.1875 C2.71382812 11.35412109 2.42765625 10.52074219 2.1328125 9.66210938 C1.72675781 8.45844727 1.72675781 8.45844727 1.3125 7.23046875 C1.06113281 6.49207764 0.80976562 5.75368652 0.55078125 4.99291992 C0 3 0 3 0 0 Z " fill="#232223" transform="translate(679,86)"/>
<path d="M0 0 C0.61875 0.639375 1.2375 1.27875 1.875 1.9375 C2.91634937 2.958657 3.95807235 3.97943305 5 5 C5.65871094 5.67804688 6.31742188 6.35609375 6.99609375 7.0546875 C11.94673785 11.88010452 16.98243853 15.36157933 23.125 18.4375 C23.78153564 18.7672583 24.43807129 19.0970166 25.11450195 19.43676758 C29.65546947 21.60607012 34.08800327 22.91148402 39 24 C36.40546173 26.59453827 34.05442164 27.06687235 30.5625 28.1875 C14.59528385 33.64742994 3.3360511 43.99982039 -4.12304688 59.06054688 C-6.59190153 64.52061965 -8.32667117 70.25597701 -10 76 C-10.66 76 -11.32 76 -12 76 C-12.20753906 75.28457031 -12.41507813 74.56914062 -12.62890625 73.83203125 C-14.8966037 66.49759556 -17.86959593 60.2159938 -21.70703125 53.6171875 C-22.34705078 52.32167969 -22.34705078 52.32167969 -23 51 C-22.67 50.34 -22.34 49.68 -22 49 C-21.16094435 50.12073862 -20.32892169 51.24674547 -19.5 52.375 C-19.0359375 53.00148437 -18.571875 53.62796875 -18.09375 54.2734375 C-17 56 -17 56 -17 58 C-16.34 58.33 -15.68 58.66 -15 59 C-13.95191959 60.97522846 -12.9479589 62.97481509 -12 65 C-10.02 64.505 -10.02 64.505 -8 64 C-8 61.69 -8 59.38 -8 57 C-7.34 57 -6.68 57 -6 57 C-5.34 55.02 -4.68 53.04 -4 51 C-3.34 51 -2.68 51 -2 51 C-1.67 50.01 -1.34 49.02 -1 48 C-0.34 48 0.32 48 1 48 C1 47.01 1 46.02 1 45 C1.66 45 2.32 45 3 45 C3.0825 44.38125 3.165 43.7625 3.25 43.125 C4 41 4 41 6.0625 39.75 C6.701875 39.5025 7.34125 39.255 8 39 C8 38.34 8 37.68 8 37 C8.92232422 36.51080078 8.92232422 36.51080078 9.86328125 36.01171875 C10.67152344 35.57472656 11.47976563 35.13773438 12.3125 34.6875 C13.11300781 34.25824219 13.91351562 33.82898438 14.73828125 33.38671875 C17.00136103 32.12521281 17.00136103 32.12521281 18.53125 30.4375 C20.29941726 28.70695332 21.85969634 28.11387503 24.1875 27.3125 C24.90292969 27.06113281 25.61835937 26.80976562 26.35546875 26.55078125 C26.89816406 26.36902344 27.44085937 26.18726562 28 26 C28 25.34 28 24.68 28 24 C26.27281484 23.03810003 24.54315942 22.08063492 22.8125 21.125 C21.84957031 20.59132813 20.88664063 20.05765625 19.89453125 19.5078125 C17.09534144 17.96911823 17.09534144 17.96911823 14.35546875 17.0390625 C11.62745431 15.83565978 10.38293535 14.5414968 8.5 12.25 C7.91089844 11.54101562 7.32179688 10.83203125 6.71484375 10.1015625 C6.14894531 9.40804687 5.58304688 8.71453125 5 8 C4.22849609 7.11441406 4.22849609 7.11441406 3.44140625 6.2109375 C0 2.25283286 0 2.25283286 0 0 Z " fill="#18B1FB" transform="translate(569,68)"/>
<path d="M0 0 C-0.99 0.99 -1.98 1.98 -3 3 C-2.34 3.66 -1.68 4.32 -1 5 C-4.63 5.99 -8.26 6.98 -12 8 C-12.04254356 9.99954746 -12.04080783 12.00041636 -12 14 C-10.44655141 15.55344859 -8.77483728 15.30519274 -6.625 15.5 C-3.82678686 15.75521162 -1.69189489 16.1027017 1 17 C-0.75 20.875 -0.75 20.875 -3 22 C-7.92640344 22.41251687 -12.47717008 22.6526414 -17.0625 20.6875 C-19.36773578 18.679714 -20.84040233 16.9909902 -21.3359375 13.9140625 C-21.40256666 10.00959371 -21.30131701 7.56647598 -19.4375 4.0625 C-13.77105657 -0.7321829 -7.0302643 -0.25461722 0 0 Z " fill="#262526" transform="translate(258,97)"/>
<path d="M0 0 C4.94586526 2.29629459 7.30760518 5.31323865 10 10 C11 13 11 13 11 21 C2.42 21 -6.16 21 -15 21 C-14.01 19.515 -14.01 19.515 -13 18 C-13.66 17.34 -14.32 16.68 -15 16 C-9.06 16 -3.12 16 3 16 C0.11186245 8.37036226 0.11186245 8.37036226 -3.140625 6.78125 C-3.83671875 6.6884375 -4.5328125 6.595625 -5.25 6.5 C-7.10625 6.2525 -7.10625 6.2525 -9 6 C-9 5.01 -9 4.02 -9 3 C-10.65 3 -12.3 3 -14 3 C-14 2.34 -14 1.68 -14 1 C-9.81388848 -1.09305576 -4.55867052 -0.42364608 0 0 Z " fill="#1D1C1D" transform="translate(325,81)"/>
<path d="M0 0 C1.74216797 0.02707031 1.74216797 0.02707031 3.51953125 0.0546875 C4.39996094 0.07789062 5.28039062 0.10109375 6.1875 0.125 C6.1875 0.455 6.1875 0.785 6.1875 1.125 C2.8875 1.785 -0.4125 2.445 -3.8125 3.125 C-3.4825 4.115 -3.1525 5.105 -2.8125 6.125 C-3.8025 6.681875 -3.8025 6.681875 -4.8125 7.25 C-7.16553045 9.03394778 -7.16553045 9.03394778 -7.0625 12.3125 C-6.93875 13.7046875 -6.93875 13.7046875 -6.8125 15.125 C-1.30883208 15.44874517 2.62422206 15.65786034 7.1875 12.125 C7.0225 12.723125 6.8575 13.32125 6.6875 13.9375 C6.0760876 16.23844336 6.0760876 16.23844336 6.1875 19.125 C3.24416682 22.05451471 0.89641916 22.5792418 -3.1875 22.625 C-7.03769104 22.53234834 -9.43257276 22.2152073 -12.4375 19.75 C-15.70521538 16.13831458 -16.1649996 14.06747278 -16.09375 9.16015625 C-15.64259301 5.89553411 -14.19372136 4.31314936 -11.8125 2.125 C-7.78804049 0.08442898 -4.47712415 -0.09044695 0 0 Z " fill="#201F20" transform="translate(357.8125,96.875)"/>
<path d="M0 0 C2.02440084 3.70664942 3.34611528 7.63524032 4.6875 11.625 C4.92533203 12.305625 5.16316406 12.98625 5.40820312 13.6875 C5.99849666 15.43933889 6.50565925 17.21870464 7 19 C6.67 19.66 6.34 20.32 6 21 C4.68 19.02 3.36 17.04 2 15 C-2.17231328 17.93189582 -3.84601072 20.43354273 -6 25 C-12.2438682 35.77931643 -21.96682971 46.77212936 -34 51 C-36.76441969 52.40759341 -36.76441969 52.40759341 -39 54 C-39 54.66 -39 55.32 -39 56 C-38.36191406 56.26554687 -37.72382812 56.53109375 -37.06640625 56.8046875 C-36.24011719 57.15789062 -35.41382813 57.51109375 -34.5625 57.875 C-33.32693359 58.39707031 -33.32693359 58.39707031 -32.06640625 58.9296875 C-30 60 -30 60 -29 62 C-28.01 62 -27.02 62 -26 62 C-26 62.66 -26 63.32 -26 64 C-25.34 64.33 -24.68 64.66 -24 65 C-27.81232237 65 -30.28838991 63.43482981 -33.5625 61.6875 C-39.227839 58.74556934 -44.77029477 56.50718675 -51 55 C-48.06309397 53.04206264 -45.91290615 52.29581973 -42.5625 51.3125 C-27.84418308 46.53127705 -15.34418386 37.23851478 -8.0390625 23.4375 C-4.26774397 15.87041196 -1.62822091 8.32718692 0 0 Z " fill="#7061E3" transform="translate(557,39)"/>
<path d="M0 0 C2.21694116 1.47429337 4.00852722 3.29368347 5.88671875 5.171875 C5.88671875 6.984375 5.88671875 6.984375 4.88671875 9.171875 C2.988438 11.0175718 0.99647283 12.55589315 -1.11328125 14.171875 C-1.56703125 13.0375 -2.02078125 11.903125 -2.48828125 10.734375 C-3.68423931 7.12465808 -3.68423931 7.12465808 -6.11328125 6.171875 C-9.02905035 5.75485378 -9.02905035 5.75485378 -12.11328125 6.171875 C-13.04140625 7.161875 -13.04140625 7.161875 -13.98828125 8.171875 C-16.46701781 10.50480353 -17.09135834 10.44483586 -20.36328125 10.421875 C-21.60078125 10.339375 -22.83828125 10.256875 -24.11328125 10.171875 C-23.63274439 5.84704325 -22.45546144 3.94111002 -19.11328125 1.171875 C-13.85077307 -2.12754024 -5.72027606 -2.24158692 0 0 Z " fill="#1D1C1D" transform="translate(262.11328125,81.828125)"/>
<path d="M0 0 C3.51246203 0.81539297 4.41376186 1.06155025 6.5 3.8125 C6.84057617 5.80541992 6.84057617 5.80541992 6.79296875 8.04296875 C6.78330078 8.84541016 6.77363281 9.64785156 6.76367188 10.47460938 C6.73853516 11.30798828 6.71339844 12.14136719 6.6875 13 C6.66719727 14.2674707 6.66719727 14.2674707 6.64648438 15.56054688 C6.61115799 17.64480384 6.55735139 19.72873277 6.5 21.8125 C5.18 21.8125 3.86 21.8125 2.5 21.8125 C2.17 15.8725 1.84 9.9325 1.5 3.8125 C-4.86866419 5.01928321 -4.86866419 5.01928321 -6.5 6.8125 C-6.73653523 9.33846259 -6.92173692 11.84357207 -7.0625 14.375 C-7.10568359 15.08591797 -7.14886719 15.79683594 -7.19335938 16.52929688 C-7.29971777 18.29011912 -7.40038846 20.0512832 -7.5 21.8125 C-8.82 21.8125 -10.14 21.8125 -11.5 21.8125 C-11.5 14.8825 -11.5 7.9525 -11.5 0.8125 C-9.025 1.3075 -9.025 1.3075 -6.5 1.8125 C-3.5 -0.1875 -3.5 -0.1875 0 0 Z " fill="#252424" transform="translate(966.5,85.1875)"/>
<path d="M0 0 C7.26 0 14.52 0 22 0 C22 1.98 22 3.96 22 6 C16.72 6 11.44 6 6 6 C6 9.63 6 13.26 6 17 C4.02 17 2.04 17 0 17 C0 11.39 0 5.78 0 0 Z " fill="#B01483" transform="translate(20,54)"/>
<path d="M0 0 C1.32 0 2.64 0 4 0 C4.84212256 1.91282125 5.67338864 3.83042473 6.5 5.75 C7.19609375 7.35101563 7.19609375 7.35101563 7.90625 8.984375 C9 12 9 12 9 16 C9.66 16 10.32 16 11 16 C11.0825 15.030625 11.165 14.06125 11.25 13.0625 C11.8999125 8.32880899 13.92305323 4.26015593 16 0 C17.32 0.33 18.64 0.66 20 1 C18.43376933 5.09009953 16.84410872 9.1706937 15.25 13.25 C14.8065625 14.40886719 14.363125 15.56773438 13.90625 16.76171875 C13.46796875 17.87675781 13.0296875 18.99179688 12.578125 20.140625 C12.18012695 21.16704102 11.78212891 22.19345703 11.37207031 23.25097656 C9.9058606 26.18861381 8.58414412 27.97883445 6 30 C4.68 30 3.36 30 2 30 C2 28.68 2 27.36 2 26 C3.32 25.67 4.64 25.34 6 25 C7.9581013 19.72489649 5.62585426 15.68139434 3.5625 10.8125 C2.8944268 9.19512659 2.22893138 7.57668523 1.56640625 5.95703125 C1.26677979 5.24522705 0.96715332 4.53342285 0.65844727 3.80004883 C0 2 0 2 0 0 Z " fill="#1A1A1A" transform="translate(827,86)"/>
<path d="M0 0 C1.98 0 3.96 0 6 0 C6 5.61 6 11.22 6 17 C-0.93 17 -7.86 17 -15 17 C-15 15.02 -15 13.04 -15 11 C-10.05 11 -5.1 11 0 11 C0 7.37 0 3.74 0 0 Z " fill="#19B0F8" transform="translate(107,118)"/>
<path d="M0 0 C6.93 0 13.86 0 21 0 C21 5.61 21 11.22 21 17 C19.02 17 17.04 17 15 17 C15 13.37 15 9.74 15 6 C10.05 6 5.1 6 0 6 C0 4.02 0 2.04 0 0 Z " fill="#1FB8F9" transform="translate(92,54)"/>
<path d="M0 0 C1.98 0 3.96 0 6 0 C6 3.63 6 7.26 6 11 C10.95 11 15.9 11 21 11 C21 12.65 21 14.3 21 16 C14.07 16 7.14 16 0 16 C0 10.72 0 5.44 0 0 Z " fill="#B21886" transform="translate(20,118)"/>
<path d="M0 0 C3.95698052 1.52191558 3.95698052 1.52191558 5.4375 3.9375 C5.9868667 8.80331934 6.17240373 10.8351444 3.4375 14.9375 C2.7775 15.5975 2.1175 16.2575 1.4375 16.9375 C-4.10675612 16.45539077 -4.10675612 16.45539077 -5.9375 14.375 C-6.8454673 10.83392755 -7.16268479 7.56083779 -6.5625 3.9375 C-4.5483282 0.87894282 -3.70571412 -0.09038327 0 0 Z " fill="#F5F6F6" transform="translate(644.5625,88.0625)"/>
<path d="M0 0 C3.33248088 0.48598679 4.0102603 0.83865631 6 3.4375 C6.87842208 7.73464587 6.69118704 11.36232016 4.3125 15.0625 C2 16.4375 2 16.4375 -0.5625 16.375 C-4.51948052 14.85308442 -4.51948052 14.85308442 -6 12.4375 C-6.39174433 8.32418458 -6.56377991 5.69034424 -4.875 1.9375 C-3 0.4375 -3 0.4375 0 0 Z " fill="#F7F7F8" transform="translate(667,88.5625)"/>
<path d="M0 0 C1.4540625 0.0309375 1.4540625 0.0309375 2.9375 0.0625 C-0.8125 18.8125 -0.8125 18.8125 -5.0625 23.0625 C-5.76960678 24.71241582 -6.44193989 26.37812256 -7.0625 28.0625 C-9.31637581 24.68168628 -9.8302002 23.09987052 -10.0625 19.0625 C-9.36194621 15.86214403 -8.29844457 12.82855083 -7.1875 9.75 C-6.90519531 8.92693359 -6.62289062 8.10386719 -6.33203125 7.25585938 C-3.83496198 0.07826453 -3.83496198 0.07826453 0 0 Z " fill="#1D3C90" transform="translate(74.0625,68.9375)"/>
<path d="M0 0 C2.99710417 0.44956563 3.68343232 0.99789144 5.5 3.375 C5.8984375 5.75 5.8984375 5.75 5.875 8.375 C5.88273438 9.24125 5.89046875 10.1075 5.8984375 11 C5.42757752 13.80669477 4.76234706 14.6971828 2.5 16.375 C0 16.75 0 16.75 -2.5 16.375 C-4.76234706 14.6971828 -5.42757752 13.80669477 -5.8984375 11 C-5.89070312 10.13375 -5.88296875 9.2675 -5.875 8.375 C-5.88273438 7.50875 -5.89046875 6.6425 -5.8984375 5.75 C-5.26772498 1.99045873 -3.73328232 0.55999235 0 0 Z " fill="#F9F9F9" transform="translate(870.5,87.625)"/>
<path d="M0 0 C1.670625 0.4021875 1.670625 0.4021875 3.375 0.8125 C4.5970897 3.2566794 4.61141068 5.02279872 4.6875 7.75 C4.72488281 8.62527344 4.76226563 9.50054687 4.80078125 10.40234375 C4.375 12.8125 4.375 12.8125 2.51953125 14.63671875 C0.375 15.8125 0.375 15.8125 -2.25 15.6875 C-4.625 14.8125 -4.625 14.8125 -6.625 11.8125 C-6.92578125 9.65625 -6.92578125 9.65625 -6.9375 7.3125 C-6.95425781 6.5390625 -6.97101562 5.765625 -6.98828125 4.96875 C-6.625 2.8125 -6.625 2.8125 -5.33203125 1.01953125 C-3.625 -0.1875 -3.625 -0.1875 0 0 Z " fill="#F8F9F8" transform="translate(816.625,89.1875)"/>
<path d="M0 0 C2.9375 0.375 2.9375 0.375 4.9375 2.375 C5.2734375 4.87109375 5.2734375 4.87109375 5.3125 7.8125 C5.34085938 8.78058594 5.36921875 9.74867187 5.3984375 10.74609375 C4.9375 13.375 4.9375 13.375 3.078125 15.2265625 C0.9375 16.375 0.9375 16.375 -1.6875 16.3125 C-4.0625 15.375 -4.0625 15.375 -5.375 13.75 C-6.58317204 9.57631475 -6.77740054 5.92395116 -4.9375 1.9375 C-3.0625 0.375 -3.0625 0.375 0 0 Z " fill="#F8F8F8" transform="translate(779.0625,88.625)"/>
<path d="M0 0 C2.5 1.5 2.5 1.5 4 3 C3.67 4.65 3.34 6.3 3 8 C2.1646875 7.01 2.1646875 7.01 1.3125 6 C-0.82982423 3.78296642 -0.82982423 3.78296642 -3.625 3.625 C-6.18227196 3.79015749 -6.18227196 3.79015749 -8 6 C-8.31899515 8.36955386 -8.31899515 8.36955386 -8.25 11 C-8.25515625 11.886875 -8.2603125 12.77375 -8.265625 13.6875 C-8.22052862 16.19400239 -8.22052862 16.19400239 -6 18 C-2.41656024 18.16677282 -2.41656024 18.16677282 1 18 C0.67 19.32 0.34 20.64 0 22 C-7.36196319 22.49079755 -7.36196319 22.49079755 -10.4375 20.125 C-13.88004622 15.44313714 -13.7004304 10.65231041 -13 5 C-9.48806058 -0.59715346 -6.12003277 -0.77714702 0 0 Z " fill="#252526" transform="translate(874,85)"/>
<path d="M0 0 C4.03885789 0.84142873 5.49117556 2.39936858 8 5.625 C8.33 7.275 8.66 8.925 9 10.625 C3.06 10.625 -2.88 10.625 -9 10.625 C-7.82763226 4.76316128 -6.15479508 1.28224898 0 0 Z " fill="#F2F2F2" transform="translate(319,86.375)"/>
<path d="M0 0 C-0.24445705 4.15576993 -0.65935436 6.52910749 -3.125 9.9375 C-6.73220595 12.52527818 -8.6490371 12.6445871 -13 12 C-15 10.8125 -15 10.8125 -16 9 C-15.75546876 5.65807308 -15.39456443 4.39456443 -13 2 C-10.46875 1.3671875 -10.46875 1.3671875 -7.5 0.875 C-6.03046875 0.62363281 -6.03046875 0.62363281 -4.53125 0.3671875 C-2 0 -2 0 0 0 Z " fill="#F6F6F6" transform="translate(366,101)"/>
<path d="M0 0 C-0.49041096 6.37534247 -0.49041096 6.37534247 -2.9375 9.375 C-6.66602298 12.31262416 -9.28119599 12.25279307 -14 12 C-16 10 -16 10 -16.3125 7 C-16.209375 6.01 -16.10625 5.02 -16 4 C-12.88475523 1.92317015 -11.06898061 1.48427637 -7.4375 0.875 C-6.46683594 0.70742187 -5.49617187 0.53984375 -4.49609375 0.3671875 C-2 0 -2 0 0 0 Z " fill="#F7F7F7" transform="translate(261,101)"/>
<path d="M0 0 C0 0.99 0 1.98 0 3 C-2.23046875 5.19140625 -2.23046875 5.19140625 -5.1875 7.5625 C-6.15042969 8.34753906 -7.11335937 9.13257812 -8.10546875 9.94140625 C-10.74184862 11.81640246 -12.97398441 12.93169382 -16 14 C-18.76441969 15.40759341 -18.76441969 15.40759341 -21 17 C-21 17.66 -21 18.32 -21 19 C-20.36191406 19.26554687 -19.72382812 19.53109375 -19.06640625 19.8046875 C-18.24011719 20.15789062 -17.41382813 20.51109375 -16.5625 20.875 C-15.73878906 21.22304687 -14.91507813 21.57109375 -14.06640625 21.9296875 C-12 23 -12 23 -11 25 C-10.01 25 -9.02 25 -8 25 C-8 25.66 -8 26.32 -8 27 C-7.34 27.33 -6.68 27.66 -6 28 C-9.81232237 28 -12.28838991 26.43482981 -15.5625 24.6875 C-21.227839 21.74556934 -26.77029477 19.50718675 -33 18 C-30.06309397 16.04206264 -27.91290615 15.29581973 -24.5625 14.3125 C-15.36824283 11.32575949 -7.12754222 6.53358037 0 0 Z " fill="#7459DF" transform="translate(539,76)"/>
<path d="M0 0 C0.99 0 1.98 0 3 0 C3 0.66 3 1.32 3 2 C3.99 1.34 4.98 0.68 6 0 C8.6875 -0.125 8.6875 -0.125 11 0 C11.33 0.66 11.66 1.32 12 2 C11.67 2.66 11.34 3.32 11 4 C9.02 4.66 7.04 5.32 5 6 C4.67 10.95 4.34 15.9 4 21 C2.68 21 1.36 21 0 21 C0 14.07 0 7.14 0 0 Z " fill="#1C1B1C" transform="translate(734,86)"/>
<path d="M0 0 C0 1.98 0 3.96 0 6 C-1.59766103 6.86627399 -3.20339944 7.71766465 -4.8125 8.5625 C-5.70582031 9.03816406 -6.59914063 9.51382813 -7.51953125 10.00390625 C-10 11 -10 11 -13 10 C-11.68 9.67 -10.36 9.34 -9 9 C-14.12839994 7.18024518 -18.17684382 9.1400901 -23 11 C-23 13.31 -23 15.62 -23 18 C-21.576875 18.433125 -21.576875 18.433125 -20.125 18.875 C-17 20 -17 20 -15 22 C-18.52069985 21.41321669 -20.71299843 20.64350079 -24 19 C-24 16.03 -24 13.06 -24 10 C-20.37777789 8.32724698 -16.7517834 6.66283749 -13.125 5 C-11.57619141 4.28457031 -11.57619141 4.28457031 -9.99609375 3.5546875 C-9.00996094 3.10351562 -8.02382813 2.65234375 -7.0078125 2.1875 C-6.09660645 1.76855469 -5.18540039 1.34960938 -4.24658203 0.91796875 C-2 0 -2 0 0 0 Z " fill="#AF1783" transform="translate(51,80)"/>
<path d="M0 0 C0.99 0 1.98 0 3 0 C3 9.57 3 19.14 3 29 C1.68 28.67 0.36 28.34 -1 28 C-1.99 28.66 -2.98 29.32 -4 30 C-7.89686671 29.85829576 -10.28437478 29.50093765 -13.5 27.25 C-15 25 -15 25 -14.75 22.25 C-14.5025 21.5075 -14.255 20.765 -14 20 C-12.62437146 21.28965176 -11.29233607 22.62689293 -10 24 C-10 24.66 -10 25.32 -10 26 C-4.6913151 25.41825155 -4.6913151 25.41825155 0 23 C0.33 23.99 0.66 24.98 1 26 C1 20.72 1 15.44 1 10 C0.67 10 0.34 10 0 10 C0 6.7 0 3.4 0 0 Z " fill="#0E0D0E" transform="translate(785,78)"/>
<path d="M0 0 C0.99 0 1.98 0 3 0 C3 4.62 3 9.24 3 14 C-2.94 14 -8.88 14 -15 14 C-15 13.01 -15 12.02 -15 11 C-10.38 10.67 -5.76 10.34 -1 10 C-0.67 6.7 -0.34 3.4 0 0 Z " fill="#26BBFA" transform="translate(108,119)"/>
<path d="M0 0 C8.01369863 -0.61643836 8.01369863 -0.61643836 11.5 1.5625 C13.42061885 4.68350563 13.72139186 7.3780942 14 11 C9.38 11 4.76 11 0 11 C-0.33 10.34 -0.66 9.68 -1 9 C2.63 9 6.26 9 10 9 C9.67 7.35 9.34 5.7 9 4 C7.72125 3.979375 6.4425 3.95875 5.125 3.9375 C4.40570312 3.92589844 3.68640625 3.91429688 2.9453125 3.90234375 C0.91814596 3.87350758 0.91814596 3.87350758 -1 5 C-0.67 3.35 -0.34 1.7 0 0 Z " fill="#101010" transform="translate(716,86)"/>
<path d="M0 0 C6.93 0 13.86 0 21 0 C21 5.61 21 11.22 21 17 C19.02 17 17.04 17 15 17 C15 13.37 15 9.74 15 6 C15.33 6 15.66 6 16 6 C16 8.97 16 11.94 16 15 C16.99 15 17.98 15 19 15 C19 10.38 19 5.76 19 1 C13.06 1 7.12 1 1 1 C1 2.32 1 3.64 1 5 C5.29 5 9.58 5 14 5 C14 5.33 14 5.66 14 6 C9.38 6 4.76 6 0 6 C0 4.02 0 2.04 0 0 Z " fill="#06ACF7" transform="translate(92,54)"/>
<path d="M0 0 C1.7325 0.1546875 1.7325 0.1546875 3.5 0.3125 C5.5 3.3125 5.5 3.3125 5.1875 5.9375 C4.5 8.3125 4.5 8.3125 3.5 9.3125 C0.0625 9.5 0.0625 9.5 -3.5 9.3125 C-5.5 7.3125 -5.5 7.3125 -5.75 4.8125 C-5.33562907 0.66879066 -4.02091338 0.35901012 0 0 Z " fill="#212121" transform="translate(187.5,65.6875)"/>
<path d="M0 0 C1.32 0 2.64 0 4 0 C4 6.93 4 13.86 4 21 C2.68 21 1.36 21 0 21 C0 14.07 0 7.14 0 0 Z " fill="#141313" transform="translate(979,86)"/>
<path d="M0 0 C1.32 0 2.64 0 4 0 C4.0272415 1.41655793 4.04650467 2.83327045 4.0625 4.25 C4.07410156 5.03890625 4.08570313 5.8278125 4.09765625 6.640625 C4.00374984 8.90940387 3.5511367 10.80946515 3 13 C3.185625 13.680625 3.37125 14.36125 3.5625 15.0625 C3.706875 15.701875 3.85125 16.34125 4 17 C3.34 17.99 2.68 18.98 2 20 C1.97360171 22.29714187 1.97360171 22.29714187 2.375 24.6875 C2.48585938 25.49574219 2.59671875 26.30398437 2.7109375 27.13671875 C2.80632813 27.75160156 2.90171875 28.36648437 3 29 C2.01 29 1.02 29 0 29 C0 19.43 0 9.86 0 0 Z " fill="#141414" transform="translate(806,78)"/>
<path d="M0 0 C3.0625 2.0625 3.0625 2.0625 5 5 C4.8125 8.8125 4.8125 8.8125 4 12 C3.01 12.33 2.02 12.66 1 13 C0.67 10.03 0.34 7.06 0 4 C-5.02254631 3.7045561 -7.89542386 4.01485372 -12 7 C-12 5.35 -12 3.7 -12 2 C-8.30505523 -0.46329652 -4.28904893 -0.8137326 0 0 Z " fill="#222122" transform="translate(820,86)"/>
<path d="M0 0 C0.66 0.99 1.32 1.98 2 3 C2.66 3.66 3.32 4.32 4 5 C3.53846154 11.46153846 3.53846154 11.46153846 1 14 C0.29289322 15.64991582 -0.37943989 17.31562256 -1 19 C-3.27973299 15.58040051 -3.85099879 14.09753325 -4 10 C-2.90303456 6.55460152 -1.51142753 3.28232759 0 0 Z " fill="#1E3371" transform="translate(68,78)"/>
<path d="M0 0 C2.31 0 4.62 0 7 0 C6.67257813 0.53109375 6.34515625 1.0621875 6.0078125 1.609375 C4.7357011 4.62694157 4.8040637 6.98693023 4.875 10.25 C4.89304687 11.32765625 4.91109375 12.4053125 4.9296875 13.515625 C4.95289063 14.33546875 4.97609375 15.1553125 5 16 C3.02 16 1.04 16 -1 16 C-0.67 15.34 -0.34 14.68 0 14 C0.07116382 11.62597499 0.08409085 9.24999323 0.0625 6.875 C0.05347656 5.59367187 0.04445313 4.31234375 0.03515625 2.9921875 C0.02355469 2.00476562 0.01195313 1.01734375 0 0 Z " fill="#B7228D" transform="translate(21,55)"/>
<path d="M0 0 C0.66 0.66 1.32 1.32 2 2 C1.79296875 4.05859375 1.79296875 4.05859375 1.1875 6.4375 C0.99542969 7.21996094 0.80335937 8.00242187 0.60546875 8.80859375 C0.12308568 10.55450924 -0.42720734 12.28162202 -1 14 C-2.98 14 -4.96 14 -7 14 C-6.71640113 12.5608866 -6.42278601 11.12374482 -6.125 9.6875 C-5.96257813 8.88699219 -5.80015625 8.08648437 -5.6328125 7.26171875 C-4.60517263 3.58885775 -3.15270742 2.10180495 0 0 Z " fill="#222838" transform="translate(62,105)"/>
<path d="M0 0 C0.59167969 0.06960937 1.18335938 0.13921875 1.79296875 0.2109375 C-1.20703125 2.2109375 -1.20703125 2.2109375 -3.76953125 3.2109375 C-7.58978994 6.34550873 -7.61220663 10.47897447 -8.20703125 15.2109375 C-8.53703125 14.5509375 -8.86703125 13.8909375 -9.20703125 13.2109375 C-10.19703125 13.2109375 -11.18703125 13.2109375 -12.20703125 13.2109375 C-12.64298135 8.85143646 -12.4457096 6.63439909 -10.26953125 2.7734375 C-6.53815733 -0.34873251 -4.68474384 -0.32097756 0 0 Z " fill="#171616" transform="translate(669.20703125,85.7890625)"/>
<path d="M0 0 C0.99 0 1.98 0 3 0 C2.67 7.92 2.34 15.84 2 24 C1.01 24 0.02 24 -1 24 C-1.66 21.69 -2.32 19.38 -3 17 C-2.67 16.67 -2.34 16.34 -2 16 C-1.62911039 14.19481074 -1.30258696 12.38038572 -1 10.5625 C-0.10763209 5.21526419 -0.10763209 5.21526419 1 3 C0.34 2.67 -0.32 2.34 -1 2 C-0.67 1.34 -0.34 0.68 0 0 Z " fill="#3B3A3B" transform="translate(877,85)"/>
<path d="M0 0 C0.66 0.66 1.32 1.32 2 2 C4.44012949 2.24287489 4.44012949 2.24287489 7.125 2.125 C8.03507813 2.10695313 8.94515625 2.08890625 9.8828125 2.0703125 C10.58148437 2.04710938 11.28015625 2.02390625 12 2 C12.33 1.34 12.66 0.68 13 0 C14.32 0 15.64 0 17 0 C15.53055917 4.6532293 15.53055917 4.6532293 13.20703125 6.171875 C9.44024599 7.58525283 5.83150322 7.03769879 2 6 C-0.0625 3.9375 -0.0625 3.9375 -1 2 C-0.67 1.34 -0.34 0.68 0 0 Z " fill="#1A1919" transform="translate(749,101)"/>
<path d="M0 0 C1.32 0.33 2.64 0.66 4 1 C4 1.99 4 2.98 4 4 C4.33 4.66 4.66 5.32 5 6 C4.91089842 8.55807762 4.76705754 11.0762601 4.5625 13.625 C4.51029297 14.33140625 4.45808594 15.0378125 4.40429688 15.765625 C4.27458793 17.51079987 4.13795046 19.25545725 4 21 C2.68 21 1.36 21 0 21 C0 14.07 0 7.14 0 0 Z " fill="#1D1C1C" transform="translate(955,86)"/>
<path d="M0 0 C0.99 0.33 1.98 0.66 3 1 C4.06902939 3.30252483 5.07175817 5.6372026 6 8 C7.18424326 9.41577477 7.18424326 9.41577477 10.5625 9.0625 C12.2640625 9.0315625 12.2640625 9.0315625 14 9 C13.67 10.32 13.34 11.64 13 13 C5.63803681 13.49079755 5.63803681 13.49079755 2.5625 11.125 C-0.25011734 7.29984042 -0.08738556 4.71882042 0 0 Z " fill="#181818" transform="translate(861,94)"/>
<path d="M0 0 C0.99 0 1.98 0 3 0 C3 6.93 3 13.86 3 21 C2.01 21 1.02 21 0 21 C0 14.07 0 7.14 0 0 Z " fill="#121212" transform="translate(946,86)"/>
<path d="M0 0 C4.70491803 2.40983607 4.70491803 2.40983607 6 5 C6 6.98 6 8.96 6 11 C1.05 11 -3.9 11 -9 11 C-9 10.34 -9 9.68 -9 9 C-5.04 9 -1.08 9 3 9 C2.01 7.35 1.02 5.7 0 4 C0 3.34 0 2.68 0 2 C-0.66 1.67 -1.32 1.34 -2 1 C-1.34 0.67 -0.68 0.34 0 0 Z " fill="#131313" transform="translate(760,86)"/>
<path d="M0 0 C2.875 1.1875 2.875 1.1875 5 3 C5.8125 5.6875 5.8125 5.6875 6 8 C5.01 6.68 4.02 5.36 3 4 C2.01 4.495 2.01 4.495 1 5 C0.071875 4.773125 -0.85625 4.54625 -1.8125 4.3125 C-5.12161958 3.6378529 -5.12161958 3.6378529 -7.75 5.9375 C-8.86375 6.9584375 -8.86375 6.9584375 -10 8 C-10.66 8 -11.32 8 -12 8 C-11.68306247 5.06832781 -11.36774166 3.41017339 -9.375 1.1875 C-6.04793553 -0.47603223 -3.67731723 -0.38708602 0 0 Z " fill="#141414" transform="translate(898,85)"/>
<path d="M0 0 C0.99 0.33 1.98 0.66 3 1 C3 9.91 3 18.82 3 28 C2.67 27.34 2.34 26.68 2 26 C1.34 25.67 0.68 25.34 0 25 C0 20.66666667 0 16.33333333 0 12 C-0.33 11.01 -0.66 10.02 -1 9 C-0.87890625 6.73828125 -0.87890625 6.73828125 -0.5625 4.3125 C-0.46066406 3.50425781 -0.35882812 2.69601563 -0.25390625 1.86328125 C-0.17011719 1.24839844 -0.08632813 0.63351563 0 0 Z " fill="#3F3E3F" transform="translate(784,78)"/>
<path d="M0 0 C0.66 1.65 1.32 3.3 2 5 C-1.96 5 -5.92 5 -10 5 C-7.47551889 -1.31120278 -6.36969672 -1.85782821 0 0 Z " fill="#F2F3F3" transform="translate(899,89)"/>
<path d="M0 0 C0.33 0.99 0.66 1.98 1 3 C0.030625 3.45375 -0.93875 3.9075 -1.9375 4.375 C-5.07079582 5.65786221 -5.07079582 5.65786221 -6 8 C-7.65 8 -9.3 8 -11 8 C-11 6.02 -11 4.04 -11 2 C-9.54494642 1.47007308 -8.08581873 0.9513211 -6.625 0.4375 C-5.81289062 0.14746094 -5.00078125 -0.14257812 -4.1640625 -0.44140625 C-2 -1 -2 -1 0 0 Z " fill="#2C2B2D" transform="translate(251,83)"/>
<path d="M0 0 C1.32 0 2.64 0 4 0 C2.5320914 4.64837724 2.5320914 4.64837724 0.21484375 6.1796875 C-2.35551392 7.13167182 -3.9814359 7.08993532 -6.6875 6.75 C-7.47511719 6.66234375 -8.26273438 6.5746875 -9.07421875 6.484375 C-10.02748047 6.24460937 -10.02748047 6.24460937 -11 6 C-11.33 5.34 -11.66 4.68 -12 4 C-11.34 4 -10.68 4 -10 4 C-9.67 3.34 -9.34 2.68 -9 2 C-7.6078125 2.3403125 -7.6078125 2.3403125 -6.1875 2.6875 C-5.135625 2.790625 -4.08375 2.89375 -3 3 C-1.35405861 1.60411246 -1.35405861 1.60411246 0 0 Z " fill="#1A191A" transform="translate(726,101)"/>
<path d="M0 0 C1.43739513 -0.02712066 2.87493863 -0.04645067 4.3125 -0.0625 C5.51326172 -0.07990234 5.51326172 -0.07990234 6.73828125 -0.09765625 C9 0 9 0 12 1 C10.25 4.875 10.25 4.875 8 6 C6.19156337 6.14716542 4.37668434 6.2210887 2.5625 6.25 C1.59441406 6.27578125 0.62632812 6.3015625 -0.37109375 6.328125 C-3 6 -3 6 -6 3 C-1.05 3.99 -1.05 3.99 4 5 C4 4.34 4 3.68 4 3 C2.0399719 1.36323743 2.0399719 1.36323743 0 0 Z " fill="#181717" transform="translate(247,113)"/>
<path d="M0 0 C1.32 0 2.64 0 4 0 C2.55813953 4.56589147 2.55813953 4.56589147 0.3125 6.3125 C-2.93000566 7.27648817 -5.63865958 7.3055764 -9 7 C-10.9375 5.5 -10.9375 5.5 -12 4 C-9.66139263 3.3070793 -7.89518213 3.00511307 -5.4375 3.125 C-2.41022543 2.96975515 -2.02183801 2.10974401 0 0 Z " fill="#141514" transform="translate(901,101)"/>
<path d="M0 0 C0.33 0.66 0.66 1.32 1 2 C0.67 2.66 0.34 3.32 0 4 C-1.98 4.66 -3.96 5.32 -6 6 C-6.33 10.95 -6.66 15.9 -7 21 C-8.32 20.67 -9.64 20.34 -11 20 C-10.01 20 -9.02 20 -8 20 C-8.05220703 18.21142578 -8.05220703 18.21142578 -8.10546875 16.38671875 C-8.13360753 14.82032658 -8.1609076 13.25391919 -8.1875 11.6875 C-8.21263672 10.90181641 -8.23777344 10.11613281 -8.26367188 9.30664062 C-8.27333984 8.54931641 -8.28300781 7.79199219 -8.29296875 7.01171875 C-8.3086792 6.31522217 -8.32438965 5.61872559 -8.34057617 4.90112305 C-7.48602833 0.13096959 -4.29368885 -0.34813693 0 0 Z " fill="#111011" transform="translate(745,86)"/>
<path d="M0 0 C2 2 2 2 2 5 C-1.63 5 -5.26 5 -9 5 C-8.67 3.68 -8.34 2.36 -8 1 C-5.23749964 -0.38125018 -3.05268901 -0.19079306 0 0 Z " fill="#F4F4F5" transform="translate(760,89)"/>
<path d="M0 0 C3.125 0.25 3.125 0.25 5 1.625 C6.125 3.25 6.125 3.25 6.125 5.25 C2.495 5.25 -1.135 5.25 -4.875 5.25 C-3.64166667 0.31666667 -3.64166667 0.31666667 0 0 Z " fill="#F5F5F5" transform="translate(719.875,88.75)"/>
<path d="M0 0 C0.33 0 0.66 0 1 0 C1 9.24 1 18.48 1 28 C-1.64 28 -4.28 28 -7 28 C-6.67 26.02 -6.34 24.04 -6 22 C-5.67 23.32 -5.34 24.64 -5 26 C-3.35 26 -1.7 26 0 26 C0 17.42 0 8.84 0 0 Z " fill="#0C0C0C" transform="translate(373,91)"/>
<path d="M0 0 C2.475 0.495 2.475 0.495 5 1 C5 1.66 5 2.32 5 3 C7.31 3 9.62 3 12 3 C11.01 3.66 10.02 4.32 9 5 C10.32 5.66 11.64 6.32 13 7 C8.0600659 7.29058436 4.90174327 7.21320034 1 4 C0.1875 1.8125 0.1875 1.8125 0 0 Z " fill="#363636" transform="translate(861,109)"/>
<path d="M0 0 C1.4540625 0.0309375 1.4540625 0.0309375 2.9375 0.0625 C2.59680765 3.21390423 2.35673159 4.67031561 0 6.875 C-2.0625 8.0625 -2.0625 8.0625 -4.0625 8.0625 C-4.10491723 5.72955225 -4.10342937 3.39547433 -4.0625 1.0625 C-3.0625 0.0625 -3.0625 0.0625 0 0 Z " fill="#29BBF8" transform="translate(86.0625,101.9375)"/>
<path d="M0 0 C2.08063373 2.40915485 2.02645052 3.00111847 1.953125 6.07421875 C1.8336085 7.63457309 1.69214874 9.19336855 1.53125 10.75 C1.46550781 11.54728516 1.39976562 12.34457031 1.33203125 13.16601562 C1.16712043 15.13316607 0.97662406 17.09814122 0.78125 19.0625 C0.45125 19.0625 0.12125 19.0625 -0.21875 19.0625 C-0.26773438 18.06347656 -0.31671875 17.06445312 -0.3671875 16.03515625 C-0.44195313 14.74480469 -0.51671875 13.45445313 -0.59375 12.125 C-0.69816406 10.19333984 -0.69816406 10.19333984 -0.8046875 8.22265625 C-0.94132813 7.17980469 -1.07796875 6.13695313 -1.21875 5.0625 C-1.87875 4.7325 -2.53875 4.4025 -3.21875 4.0625 C-3.21875 3.4025 -3.21875 2.7425 -3.21875 2.0625 C-4.86875 1.7325 -6.51875 1.4025 -8.21875 1.0625 C-8.21875 0.7325 -8.21875 0.4025 -8.21875 0.0625 C-2.9622055 -1.25163613 -2.9622055 -1.25163613 0 0 Z " fill="#252525" transform="translate(971.21875,86.9375)"/>
<path d="M0 0 C0.90105469 0.00902344 1.80210937 0.01804687 2.73046875 0.02734375 C3.41753906 0.03894531 4.10460937 0.05054687 4.8125 0.0625 C3.3275 1.5475 3.3275 1.5475 1.8125 3.0625 C2.4725 3.7225 3.1325 4.3825 3.8125 5.0625 C0.5125 5.3925 -2.7875 5.7225 -6.1875 6.0625 C-5.5275 5.7325 -4.8675 5.4025 -4.1875 5.0625 C-4.1875 4.4025 -4.1875 3.7425 -4.1875 3.0625 C-5.5075 2.4025 -6.8275 1.7425 -8.1875 1.0625 C-5.17259443 0.05753148 -3.14568308 -0.04085303 0 0 Z " fill="#171616" transform="translate(253.1875,96.9375)"/>
<path d="M0 0 C7.38461538 -0.36923077 7.38461538 -0.36923077 10.5 1.5 C10.995 1.995 11.49 2.49 12 3 C11.67 4.65 11.34 6.3 11 8 C10.484375 7.38125 9.96875 6.7625 9.4375 6.125 C6.45541385 3.52523258 3.81553799 2.88050877 0 2 C0 1.34 0 0.68 0 0 Z " fill="#151516" transform="translate(866,85)"/>
<path d="M0 0 C1.32 0 2.64 0 4 0 C5.69144945 3.58189295 6.05672871 5.24274238 5 9 C5.38567131 11.68149993 5.38567131 11.68149993 6 14 C3.52813545 11.03653214 2.33751639 8.45958311 1.3125 4.75 C1.06113281 3.85796875 0.80976562 2.9659375 0.55078125 2.046875 C0.36902344 1.37140625 0.18726563 0.6959375 0 0 Z " fill="#131212" transform="translate(827,86)"/>
<path d="M0 0 C1.32 0 2.64 0 4 0 C4.2226746 1.43534841 4.42761906 2.87345525 4.625 4.3125 C4.74101563 5.11300781 4.85703125 5.91351563 4.9765625 6.73828125 C5 9 5 9 3 12 C2.49440092 10.56445975 1.9957251 9.1264798 1.5 7.6875 C1.2215625 6.88699219 0.943125 6.08648437 0.65625 5.26171875 C0 3 0 3 0 0 Z " fill="#181717" transform="translate(679,86)"/>
<path d="M0 0 C1.953125 0.12109375 1.953125 0.12109375 4 1 C5.046875 3.28515625 5.046875 3.28515625 5.75 6.0625 C5.99234375 6.98160156 6.2346875 7.90070312 6.484375 8.84765625 C6.65453125 9.55792969 6.8246875 10.26820312 7 11 C5 9 3 7 1 5 C-0.32 5.99 -1.64 6.98 -3 8 C-1.125 1.125 -1.125 1.125 0 0 Z " fill="#6675EA" transform="translate(557,49)"/>
<path d="M0 0 C3.67033927 3.27708863 5.69281189 6.71522208 8 11 C4.7 11 1.4 11 -2 11 C-2.33 9.68 -2.66 8.36 -3 7 C-0.69 7.33 1.62 7.66 4 8 C3.01 6.576875 3.01 6.576875 2 5.125 C0 2 0 2 0 0 Z " fill="#1B1A1B" transform="translate(225,108)"/>
<path d="M0 0 C1.66611905 -0.042721 3.33382885 -0.04063832 5 0 C6 1 6 1 6.0625 4.5625 C6.041875 5.696875 6.02125 6.83125 6 8 C4.68 7.34 3.36 6.68 2 6 C2 5.34 2 4.68 2 4 C1.01 3.67 0.02 3.34 -1 3 C-0.67 2.01 -0.34 1.02 0 0 Z " fill="#B5268C" transform="translate(45,102)"/>
<path d="M0 0 C0.33 0.66 0.66 1.32 1 2 C-0.093125 2.309375 -1.18625 2.61875 -2.3125 2.9375 C-4.55407994 3.58337897 -6.7869351 4.2623117 -9 5 C-9.99 4.34 -10.98 3.68 -12 3 C-12 2.34 -12 1.68 -12 1 C-8.0186217 -0.3271261 -4.14954773 -0.06915913 0 0 Z " fill="#2F2E2F" transform="translate(364,98)"/>
<path d="M0 0 C1.4540625 0.0309375 1.4540625 0.0309375 2.9375 0.0625 C2.6075 2.0425 2.2775 4.0225 1.9375 6.0625 C0.9475 6.3925 -0.0425 6.7225 -1.0625 7.0625 C-1.7225 6.7325 -2.3825 6.4025 -3.0625 6.0625 C-3.75 3.5625 -3.75 3.5625 -4.0625 1.0625 C-3.0625 0.0625 -3.0625 0.0625 0 0 Z " fill="#2247A6" transform="translate(74.0625,68.9375)"/>
<path d="M0 0 C0 3.99904969 -1.72586967 5.80200422 -4 9 C-2.35 9.33 -0.7 9.66 1 10 C1 10.66 1 11.32 1 12 C-1.97 12 -4.94 12 -8 12 C-6.85573734 10.186508 -5.70954608 8.37423275 -4.5625 6.5625 C-3.60537109 5.04849609 -3.60537109 5.04849609 -2.62890625 3.50390625 C-1 1 -1 1 0 0 Z " fill="#1A1A1A" transform="translate(205,107)"/>
<path d="M0 0 C0.66 0.33 1.32 0.66 2 1 C2.05391993 2.79133978 2.09275571 4.58313899 2.125 6.375 C2.14820313 7.37273437 2.17140625 8.37046875 2.1953125 9.3984375 C2 12 2 12 0 14 C-1.86987216 10.26025568 -1.30641834 5.53209172 -0.5 1.5 C-0.335 1.005 -0.17 0.51 0 0 Z " fill="#313031" transform="translate(382,92)"/>
<path d="M0 0 C1.65 1.32 3.3 2.64 5 4 C4.67 5.32 4.34 6.64 4 8 C-0.95 7.67 -5.9 7.34 -11 7 C-11 6.67 -11 6.34 -11 6 C-7.04 6 -3.08 6 1 6 C0.67 4.02 0.34 2.04 0 0 Z " fill="#434242" transform="translate(900,88)"/>
<path d="M0 0 C1.45922693 0.11409593 2.91740598 0.24165544 4.375 0.375 C5.59316406 0.47941406 5.59316406 0.47941406 6.8359375 0.5859375 C9 1 9 1 11 3 C9 5 9 5 6.0625 5.25 C3 5 3 5 0 3 C0 2.01 0 1.02 0 0 Z " fill="#181718" transform="translate(639,103)"/>
<path d="M0 0 C0.33 0 0.66 0 1 0 C3.21538462 7.26153846 3.21538462 7.26153846 2.125 11 C1.75375 11.66 1.3825 12.32 1 13 C-1.16750011 9.74874983 -1.68533358 7.85466368 -2 4 C-1.0625 1.625 -1.0625 1.625 0 0 Z " fill="#22315B" transform="translate(66,84)"/>
<path d="M0 0 C0.66 0 1.32 0 2 0 C2.79953138 3.28696233 3.09658936 4.71023192 2 8 C1.77548542 10.22574335 1.59217122 12.45581519 1.4375 14.6875 C1.35371094 15.86699219 1.26992188 17.04648438 1.18359375 18.26171875 C1.12300781 19.16535156 1.06242188 20.06898437 1 21 C0.67 21 0.34 21 0 21 C0 14.07 0 7.14 0 0 Z " fill="#2C2C2D" transform="translate(911,85)"/>
<path d="M0 0 C4.91878297 -0.28934017 8.15800309 -0.27699736 12 3 C12.8125 5.6875 12.8125 5.6875 13 8 C12.01 6.68 11.02 5.36 10 4 C9.01 4.495 9.01 4.495 8 5 C7.34 4.67 6.68 4.34 6 4 C6 3.34 6 2.68 6 2 C3.03 1.505 3.03 1.505 0 1 C0 0.67 0 0.34 0 0 Z " fill="#1D1D1D" transform="translate(891,85)"/>
<path d="M0 0 C2.64 0 5.28 0 8 0 C7.25 4.75 7.25 4.75 5 7 C5.33 5.35 5.66 3.7 6 2 C4.35 2 2.7 2 1 2 C0.67 3.32 0.34 4.64 0 6 C-0.66 5.67 -1.32 5.34 -2 5 C-1.34 3.35 -0.68 1.7 0 0 Z " fill="#201F1F" transform="translate(407,105)"/>
<path d="M0 0 C1.32 0 2.64 0 4 0 C3.01 3.3 2.02 6.6 1 10 C0.34 9.34 -0.32 8.68 -1 8 C-0.96712417 5.27130593 -0.43602229 2.7033382 0 0 Z " fill="#151415" transform="translate(704,86)"/>
<path d="M0 0 C3.25 -0.375 3.25 -0.375 7 0 C10.20830844 3.29057276 11.22601203 5.88125398 11.25 10.375 C11.1675 11.57125 11.085 12.7675 11 14 C10.67 14 10.34 14 10 14 C9.9484375 13.39671875 9.896875 12.7934375 9.84375 12.171875 C9.21467158 7.19050234 9.21467158 7.19050234 6.0859375 3.51171875 C4.08233179 2.53823541 2.11285017 1.70264552 0 1 C0 0.67 0 0.34 0 0 Z " fill="#0A090A" transform="translate(775,86)"/>
<path d="M0 0 C-1 3 -1 3 -3 4 C-5.3329866 4.04022391 -7.66706666 4.04320247 -10 4 C-9.67 3.01 -9.34 2.02 -9 1 C-5.846632 0.29925156 -3.27275026 0 0 0 Z " fill="#2E2C2D" transform="translate(362,114)"/>
<path d="M0 0 C0.99 0 1.98 0 3 0 C3 1.32 3 2.64 3 4 C3.99 4 4.98 4 6 4 C6 5.32 6 6.64 6 8 C4.35 8 2.7 8 1 8 C0.67 5.36 0.34 2.72 0 0 Z " fill="#171617" transform="translate(696,99)"/>
<path d="M0 0 C0.99 0 1.98 0 3 0 C2.67 4.62 2.34 9.24 2 14 C1.34 14 0.68 14 0 14 C-0.0270043 12.54176788 -0.04639787 11.08339325 -0.0625 9.625 C-0.07410156 8.81289062 -0.08570313 8.00078125 -0.09765625 7.1640625 C0 5 0 5 1 3 C0.34 2.67 -0.32 2.34 -1 2 C-0.67 1.34 -0.34 0.68 0 0 Z " fill="#272627" transform="translate(877,85)"/>
<path d="M0 0 C0.99 0.33 1.98 0.66 3 1 C3.33 3.31 3.66 5.62 4 8 C2.02 8.99 2.02 8.99 0 10 C-1.125 2.25 -1.125 2.25 0 0 Z " fill="#ECEDEC" transform="translate(677,88)"/>
<path d="M0 0 C0.94875 0.350625 1.8975 0.70125 2.875 1.0625 C2.2975 1.31 1.72 1.5575 1.125 1.8125 C-1.4252997 3.22933317 -3.14285701 4.93877537 -5.125 7.0625 C-6.16364166 3.94657501 -6.21536928 3.0362344 -5.125 0.0625 C-3.125 -0.9375 -3.125 -0.9375 0 0 Z " fill="#2B2B2C" transform="translate(777.125,86.9375)"/>
<path d="M0 0 C3.465 1.485 3.465 1.485 7 3 C6.67 4.65 6.34 6.3 6 8 C4.02 7.01 2.04 6.02 0 5 C0 3.35 0 1.7 0 0 Z " fill="#28BAF9" transform="translate(82,81)"/>
<path d="M0 0 C-0.33 0.99 -0.66 1.98 -1 3 C-3.375 4.0625 -3.375 4.0625 -6 5 C-6.99 5.66 -7.98 6.32 -9 7 C-8.6875 4.625 -8.6875 4.625 -8 2 C-4.77208445 -0.1519437 -3.71599191 -0.20086443 0 0 Z " fill="#171717" transform="translate(647,85)"/>
<path d="M0 0 C2.6875 1.4375 2.6875 1.4375 5 3 C4.34 4.32 3.68 5.64 3 7 C2.34 6.34 1.68 5.68 1 5 C-0.98356483 4.28591666 -2.98315437 3.61382258 -5 3 C-3 1 -3 1 0 0 Z " fill="#2C2C2C" transform="translate(671,86)"/>
<path d="M0 0 C0.99 0.33 1.98 0.66 3 1 C4 4 4 4 3 7 C2.34 7 1.68 7 1 7 C1 9.64 1 12.28 1 15 C0.67 15 0.34 15 0 15 C0 10.05 0 5.1 0 0 Z " fill="#343234" transform="translate(636,99)"/>
<path d="M0 0 C1.2077558 3.62326739 0.54311128 4.64146369 -1 8 C0.32 8 1.64 8 3 8 C3 8.66 3 9.32 3 10 C1.02 10 -0.96 10 -3 10 C-2.69201674 8.51988629 -2.378482 7.04092675 -2.0625 5.5625 C-1.88847656 4.73878906 -1.71445312 3.91507812 -1.53515625 3.06640625 C-1 1 -1 1 0 0 Z " fill="#14161B" transform="translate(58,109)"/>
<path d="M0 0 C0.99 0.33 1.98 0.66 3 1 C4.625 4.4375 4.625 4.4375 6 8 C6.33 8.66 6.66 9.32 7 10 C2.25 8.125 2.25 8.125 0 7 C0 4.69 0 2.38 0 0 Z " fill="#121212" transform="translate(861,94)"/>
<path d="M0 0 C0.91307373 3.08162384 1.41112802 5.79320141 1 9 C-1 10.8125 -1 10.8125 -3 12 C-2.49202991 7.6822542 -1.80317221 3.96697886 0 0 Z " fill="#131729" transform="translate(62,96)"/>
<path d="M0 0 C1.32 0 2.64 0 4 0 C3.1875 2.4375 3.1875 2.4375 2 5 C1.01 5.33 0.02 5.66 -1 6 C-1.625 4.125 -1.625 4.125 -2 2 C-1.34 1.34 -0.68 0.68 0 0 Z " fill="#212121" transform="translate(726,101)"/>
<path d="M0 0 C0.99 0.33 1.98 0.66 3 1 C3 3.31 3 5.62 3 8 C1.02 8.99 1.02 8.99 -1 10 C-0.67 6.7 -0.34 3.4 0 0 Z " fill="#161616" transform="translate(822,94)"/>
<path d="M0 0 C0.99 0.33 1.98 0.66 3 1 C4.1875 4.5625 4.1875 4.5625 5 8 C4.34 8.66 3.68 9.32 3 10 C-0.00617269 6.99382731 0.40414684 4.17618402 0 0 Z " fill="#272627" transform="translate(831,92)"/>
<path d="M0 0 C3.3 0 6.6 0 10 0 C10.33 1.32 10.66 2.64 11 4 C10.34 3.67 9.68 3.34 9 3 C7.845 3.04125 6.69 3.0825 5.5 3.125 C3.7675 3.063125 3.7675 3.063125 2 3 C1.34 2.01 0.68 1.02 0 0 Z " fill="#323132" transform="translate(198,81)"/>
<path d="M0 0 C1.98 0.495 1.98 0.495 4 1 C4 2.32 4 3.64 4 5 C2.35 5 0.7 5 -1 5 C-0.67 3.35 -0.34 1.7 0 0 Z " fill="#404041" transform="translate(946,77)"/>
<path d="M0 0 C0.66 0.66 1.32 1.32 2 2 C4.65537372 2.56520003 7.29144713 2.73788198 10 3 C7.36095629 4.41377341 4.92879371 5.37240135 2 6 C1.01 4.68 0.02 3.36 -1 2 C-0.67 1.34 -0.34 0.68 0 0 Z " fill="#373537" transform="translate(749,101)"/>
<path d="M0 0 C0.66 0.33 1.32 0.66 2 1 C1.67 3.31 1.34 5.62 1 8 C0.01 8.33 -0.98 8.66 -2 9 C-2 6.36 -2 3.72 -2 1 C-1.34 0.67 -0.68 0.34 0 0 Z " fill="#2A292A" transform="translate(823,90)"/>
<path d="M0 0 C0.66 0.33 1.32 0.66 2 1 C1.04270084 2.12588014 0.08412105 3.2506715 -0.875 4.375 C-1.40867187 5.00148438 -1.94234375 5.62796875 -2.4921875 6.2734375 C-3.61432007 7.55836651 -4.79371975 8.79371975 -6 10 C-5.58578031 5.16743695 -3.53586014 3.17320782 0 0 Z " fill="#181718" transform="translate(389,83)"/>
<path d="M0 0 C-0.639375 0.268125 -1.27875 0.53625 -1.9375 0.8125 C-4.33131686 1.88667752 -4.33131686 1.88667752 -5 5 C-5.66 5 -6.32 5 -7 5 C-7 3.35 -7 1.7 -7 0 C-3.86650268 -1.04449911 -3.01031744 -0.93423645 0 0 Z " fill="#313031" transform="translate(189,68)"/>
<path d="M0 0 C1.9375 0.375 1.9375 0.375 4 1 C4.33 1.66 4.66 2.32 5 3 C4.34 3.66 3.68 4.32 3 5 C1.68 4.34 0.36 3.68 -1 3 C-0.67 2.01 -0.34 1.02 0 0 Z " fill="#292A2A" transform="translate(647,86)"/>
<path d="M0 0 C1.32 0 2.64 0 4 0 C4 1.65 4 3.3 4 5 C2.68 5 1.36 5 0 5 C0 3.35 0 1.7 0 0 Z " fill="#212020" transform="translate(979,77)"/>
<path d="M0 0 C1.32 0 2.64 0 4 0 C3.34 1.65 2.68 3.3 2 5 C0.68 4.34 -0.64 3.68 -2 3 C-1.34 2.01 -0.68 1.02 0 0 Z " fill="#252426" transform="translate(901,101)"/>
<path d="M0 0 C2.64 0 5.28 0 8 0 C7.67 1.32 7.34 2.64 7 4 C5.68 4 4.36 4 3 4 C3 3.34 3 2.68 3 2 C2.01 1.34 1.02 0.68 0 0 Z " fill="#181818" transform="translate(355,81)"/>
<path d="M0 0 C2.97 0 5.94 0 9 0 C8.67 0.99 8.34 1.98 8 3 C5.36 2.67 2.72 2.34 0 2 C0 1.34 0 0.68 0 0 Z " fill="#343334" transform="translate(223,81)"/>
<path d="M0 0 C2.475 0.495 2.475 0.495 5 1 C5 1.99 5 2.98 5 4 C4.01 4.33 3.02 4.66 2 5 C1.34 3.35 0.68 1.7 0 0 Z " fill="#252526" transform="translate(861,109)"/>
<path d="M0 0 C1.32 1.32 2.64 2.64 4 4 C3.34 5.32 2.68 6.64 2 8 C0.4375 6.8125 0.4375 6.8125 -1 5 C-0.6875 2.3125 -0.6875 2.3125 0 0 Z " fill="#302F30" transform="translate(771,98)"/>
<path d="M0 0 C0.99 0.33 1.98 0.66 3 1 C2.42655063 3.86724686 2.1385485 4.8614515 0 7 C0 6.34 0 5.68 0 5 C-0.66 4.67 -1.32 4.34 -2 4 C-1.34 2.68 -0.68 1.36 0 0 Z " fill="#1E1E1E" transform="translate(749,88)"/>
<path d="M0 0 C7.42857143 -0.28571429 7.42857143 -0.28571429 11 2 C10.34 2.66 9.68 3.32 9 4 C9 3.34 9 2.68 9 2 C8.01 2.33 7.02 2.66 6 3 C2.8125 2.0625 2.8125 2.0625 0 1 C0 0.67 0 0.34 0 0 Z " fill="#262627" transform="translate(717,87)"/>
<path d="M0 0 C0.99 0.33 1.98 0.66 3 1 C3 2.32 3 3.64 3 5 C0.03 4.505 0.03 4.505 -3 4 C-2.01 2.68 -1.02 1.36 0 0 Z " fill="#B92891" transform="translate(46,81)"/>
<path d="M0 0 C0 0.99 0 1.98 0 3 C-2.64 3 -5.28 3 -8 3 C-8 2.34 -8 1.68 -8 1 C-2.25 0 -2.25 0 0 0 Z " fill="#B92991" transform="translate(40,55)"/>
<path d="M0 0 C2.31 0.66 4.62 1.32 7 2 C7 2.66 7 3.32 7 4 C5.35 4 3.7 4 2 4 C1.34 2.68 0.68 1.36 0 0 Z " fill="#0D0D0C" transform="translate(810,103)"/>
<path d="M0 0 C0.66 0.66 1.32 1.32 2 2 C1.625 5.625 1.625 5.625 1 9 C-0.20628008 6.66785852 -1.1654738 4.50357861 -2 2 C-1.34 1.34 -0.68 0.68 0 0 Z " fill="#333434" transform="translate(876,100)"/>
<path d="M0 0 C0.99 0 1.98 0 3 0 C3 0.66 3 1.32 3 2 C4.32 2.66 5.64 3.32 7 4 C6.67 4.66 6.34 5.32 6 6 C3.00306862 5.00102287 1.97290587 4.34869747 0 2 C0 1.34 0 0.68 0 0 Z " fill="#2E2D2D" transform="translate(657,99)"/>
</svg>
